106 min  -  Animation | Adventure | Comedy 

Star race car Lightning McQueen and his pal Mater head overseas to compete in the World Grand Prix race. But the road to the championship becomes rocky as Mater gets caught up in an intriguing adventure of his own: international espionage.

Directors:
John Lasseter, Brad Lewis
Writers:
Ben Queen (screenplay), John Lasseter (story), and 2 more credits »
Stars:
Owen Wilson, Larry the Cable Guy and Michael Caine 

Media info:

General
Complete name                    : E:\torrent2\Cars 2 (2011)Dut;Eng spoken.BluRayrip.mkv.1080p.AVC.AC3;DTS 5.1.ACB-Team\Cars 2 (2011)Dut;Eng spoken.BluRayrip.mkv.1080p.AVC.AC3;DTS 5.1.ACB-Team.mkv
Format                           : Matroska
File size                        : 10.6 GiB
Duration                         : 1h 46mn
Overall bit rate                 : 14.3 Mbps
Movie name                       : movie
Encoded date                     : UTC 2011-12-03 10:41:42
Writing application              : mkvmerge v3.2.0 ('Beginnings') built on Feb 12 2010 16:46:17
Writing library                  : libebml v0.7.9 + libmatroska v0.8.1

Video
ID                               : 1
Format                           : AVC
Format/Info                      : Advanced Video Codec
Format profile                   : High@L4.1
Format settings, CABAC           : Yes
Format settings, ReFrames        : 2 frames
Format settings, GOP             : M=4, N=16
Muxing mode                      : Container profile=Unknown@0.0
Codec ID                         : V_MPEG4/ISO/AVC
Duration                         : 1h 46mn
Bit rate mode                    : Variable
Bit rate                         : 10.6 Mbps
Nominal bit rate                 : 9 800 Kbps
Maximum bit rate                 : 35.0 Mbps
Width                            : 1 920 pixels
Height                           : 1 080 pixels
Display aspect ratio             : 16:9
Frame rate                       : 23.976 fps
Color space                      : YUV
Chroma subsampling               : 4:2:0
Bit depth                        : 8 bits
Scan type                        : Progressive
Bits/(Pixel*Frame)               : 0.212
Stream size                      : 7.84 GiB (74%)
Writing library                  : x264 core 118 r2085 8a62835
Encoding settings                : cabac=1 / ref=1 / deblock=1:0:0 / analyse=0x3:0x3 / me=dia / subme=1 / psy=1 / psy_rd=1.00:0.00 / mixed_ref=0 / me_range=16 / chroma_me=1 / trellis=0 / 8x8dct=1 / cqm=0 / deadzone=21,11 / fast_pskip=1 / chroma_qp_offset=0 / threads=3 / sliced_threads=0 / slices=4 / nr=0 / decimate=1 / interlaced=0 / bluray_compat=1 / constrained_intra=0 / bframes=3 / b_pyramid=0 / b_adapt=1 / b_bias=0 / direct=1 / weightb=1 / open_gop=0 / weightp=1 / keyint=24 / keyint_min=1 / scenecut=40 / intra_refresh=0 / rc_lookahead=0 / rc=abr / mbtree=0 / bitrate=9800 / ratetol=1.0 / qcomp=0.60 / qpmin=0 / qpmax=69 / qpstep=4 / vbv_maxrate=35000 / vbv_bufsize=30000 / nal_hrd=vbr / ip_ratio=1.10 / pb_ratio=1.10 / aq=1:1.00

Audio #1
ID                               : 2
Format                           : DTS
Format/Info                      : Digital Theater Systems
Codec ID                         : A_DTS
Duration                         : 1h 46mn
Bit rate mode                    : Constant
Bit rate                         : 1 510 Kbps
Channel(s)                       : 6 channels
Channel positions                : Front: L C R, Side: L R, LFE
Sampling rate                    : 48.0 KHz
Bit depth                        : 24 bits
Stream size                      : 1.12 GiB (11%)
Language                         : English

Audio #2
ID                               : 3
Format                           : DTS
Format/Info                      : Digital Theater Systems
Codec ID                         : A_DTS
Duration                         : 1h 46mn
Bit rate mode                    : Constant
Bit rate                         : 1 510 Kbps
Channel(s)                       : 6 channels
Channel positions                : Front: L C R, Side: L R, LFE
Sampling rate                    : 48.0 KHz
Bit depth                        : 24 bits
Stream size                      : 1.12 GiB (11%)
Language                         : Dutch

Audio #3
ID                               : 4
Format                           : AC-3
Format/Info                      : Audio Coding 3
Mode extension                   : CM (complete main)
Codec ID                         : A_AC3
Duration                         : 1h 46mn
Bit rate mode                    : Constant
Bit rate                         : 448 Kbps
Channel(s)                       : 6 channels
Channel positions                : Front: L C R, Side: L R, LFE
Sampling rate                    : 48.0 KHz
Bit depth                        : 16 bits
Stream size                      : 341 MiB (3%)
Language                         : Dutch/Flemish

Text #1
ID                               : 5
Format                           : VobSub
Muxing mode                      : zlib
Codec ID                         : S_VOBSUB
Codec ID/Info                    : The same subtitle format used on DVDs
Language                         : English

Text #2
ID                               : 6
Format                           : UTF-8
Codec ID                         : S_TEXT/UTF8
Codec ID/Info                    : UTF-8 Plain Text
Language                         : Dutch 

Menu
00:00:00.000                     : en:00:00:00.000
00:01:29.172                     : en:00:01:29.172
00:04:47.578                     : en:00:04:47.578
00:07:43.671                     : en:00:07:43.671
00:12:07.893                     : en:00:12:07.893
00:17:48.942                     : en:00:17:48.942
00:20:01.324                     : en:00:20:01.324
00:22:51.536                     : en:00:22:51.536
00:26:34.634                     : en:00:26:34.634
00:30:30.161                     : en:00:30:30.161
00:32:41.959                     : en:00:32:41.959
00:34:13.509                     : en:00:34:13.509
00:37:15.566                     : en:00:37:15.566
00:40:44.149                     : en:00:40:44.149
00:42:53.153                     : en:00:42:53.153
00:46:18.567                     : en:00:46:18.567
00:46:57.939                     : en:00:46:57.939
00:49:48.526                     : en:00:49:48.526
00:53:56.399                     : en:00:53:56.399
00:54:57.251                     : en:00:54:57.251
00:57:36.202                     : en:00:57:36.202
00:59:27.730                     : en:00:59:27.730
01:02:16.941                     : en:01:02:16.941
01:05:56.285                     : en:01:05:56.285
01:12:31.763                     : en:01:12:31.763
01:14:05.899                     : en:01:14:05.899
01:15:24.185                     : en:01:15:24.185
01:21:12.992                     : en:01:21:12.992
01:23:22.246                     : en:01:23:22.246
01:29:06.924                     : en:01:29:06.924
01:31:48.126                     : en:01:31:48.126
01:32:41.221                     : en:01:32:41.221
01:38:18.600                     : en:01:38:18.600

